<svg width="32" height="32" viewBox="0 0 32 32" fill="none" xmlns="http://www.w3.org/2000/svg">
<path d="M16 10.16L10.16 16L16 21.84L17.68 20.16L14.72 17.2L22 17.2L22 14.8L14.72 14.8L17.68 11.84L16 10.16ZM16 -1.39876e-06C18.1867 -1.2076e-06 20.2533 0.419999 22.2 1.26C24.1467 2.1 25.8467 3.24667 27.3 4.7C28.7533 6.15333 29.9 7.85333 30.74 9.8C31.58 11.7467 32 13.8133 32 16C32 18.2133 31.58 20.2933 30.74 22.24C29.9 24.1867 28.7533 25.88 27.3 27.32C25.8467 28.76 24.1467 29.9 22.2 30.74C20.2533 31.58 18.1867 32 16 32C13.7867 32 11.7067 31.58 9.76 30.74C7.81333 29.9 6.12 28.76 4.68 27.32C3.24 25.88 2.1 24.1867 1.26 22.24C0.420001 20.2933 1.20527e-06 18.2133 1.39876e-06 16C1.58993e-06 13.8133 0.420002 11.7467 1.26 9.8C2.1 7.85333 3.24 6.15333 4.68 4.7C6.12 3.24667 7.81334 2.1 9.76 1.26C11.7067 0.419998 13.7867 -1.59226e-06 16 -1.39876e-06ZM16 2.4C12.2133 2.4 9 3.72667 6.36 6.38C3.72 9.03333 2.4 12.24 2.4 16C2.4 19.7867 3.72 23 6.36 25.64C9 28.28 12.2133 29.6 16 29.6C19.76 29.6 22.9667 28.28 25.62 25.64C28.2733 23 29.6 19.7867 29.6 16C29.6 12.24 28.2733 9.03333 25.62 6.38C22.9667 3.72667 19.76 2.4 16 2.4Z" fill="white"/>
</svg>
